<svg width="19" height="21" viewBox="0 0 19 21" fill="none" xmlns="http://www.w3.org/2000/svg">
<path d="M11.4409 8.84229C10.8408 8.84229 10.367 9.3582 10.367 10.0005C10.367 10.6427 10.8513 11.1587 11.4409 11.1587C12.0411 11.1587 12.5149 10.6427 12.5149 10.0005C12.5149 9.3582 12.0306 8.84229 11.4409 8.84229ZM7.59788 8.84229C6.99773 8.84229 6.52393 9.3582 6.52393 10.0005C6.52393 10.6427 7.00826 11.1587 7.59788 11.1587C8.19803 11.1587 8.67183 10.6427 8.67183 10.0005C8.68236 9.3582 8.19803 8.84229 7.59788 8.84229Z" fill="grey"/>
<path d="M16.5582 0.0820312H2.44945C1.25968 0.0820312 0.291016 1.05069 0.291016 2.24046V16.3492C0.291016 17.539 1.25968 18.5077 2.44945 18.5077H14.3893L13.8312 16.5809L15.1789 17.8233L16.4529 18.992L18.7272 20.9609V2.24046C18.7166 1.05069 17.748 0.0820312 16.5582 0.0820312ZM12.494 13.717C12.494 13.717 12.115 13.2643 11.7991 12.8747C13.1784 12.4851 13.7049 11.6323 13.7049 11.6323C13.2732 11.9165 12.8626 12.1166 12.494 12.2535C11.9676 12.4746 11.4622 12.6115 10.9674 12.7062C9.95657 12.8957 9.03003 12.8431 8.24036 12.6957C7.64021 12.5799 7.12429 12.4219 6.6926 12.2429C6.45044 12.1482 6.18722 12.0324 5.92399 11.885C5.89241 11.8639 5.86082 11.8534 5.82923 11.8323C5.80817 11.8218 5.79765 11.8113 5.78712 11.8113C5.5976 11.706 5.49231 11.6323 5.49231 11.6323C5.49231 11.6323 5.9977 12.4641 7.33487 12.8642C7.019 13.2643 6.62943 13.7275 6.62943 13.7275C4.30254 13.6538 3.41811 12.1377 3.41811 12.1377C3.41811 8.77893 4.93427 6.05193 4.93427 6.05193C6.45044 4.92534 7.88237 4.95693 7.88237 4.95693L7.98766 5.08327C6.09246 5.62025 5.22908 6.45203 5.22908 6.45203C5.22908 6.45203 5.46072 6.32569 5.85029 6.15722C6.97689 5.66236 7.87185 5.53602 8.24036 5.4939C8.30353 5.48337 8.35618 5.47284 8.41935 5.47284C9.06161 5.38861 9.78811 5.36755 10.5462 5.45179C11.5464 5.5676 12.6204 5.86241 13.7154 6.45203C13.7154 6.45203 12.8836 5.66236 11.0937 5.12539L11.2411 4.95693C11.2411 4.95693 12.6836 4.92534 14.1892 6.05193C14.1892 6.05193 15.7054 8.77893 15.7054 12.1377C15.7054 12.1271 14.8209 13.6433 12.494 13.717Z" fill="grey"/>
</svg>
