<svg width="166" height="92" viewBox="0 0 166 92" fill="none" xmlns="http://www.w3.org/2000/svg">
<g filter="url(#filter0_d_2_68)">
<path d="M52.76 53L48.672 45.58H47.524V53H42.736V33.344H50.772C52.3213 33.344 53.6373 33.6147 54.72 34.156C55.8213 34.6973 56.6427 35.444 57.184 36.396C57.7253 37.3293 57.996 38.3747 57.996 39.532C57.996 40.8387 57.6227 42.0053 56.876 43.032C56.148 44.0587 55.0653 44.7867 53.628 45.216L58.164 53H52.76ZM47.524 42.192H50.492C51.3693 42.192 52.0227 41.9773 52.452 41.548C52.9 41.1187 53.124 40.512 53.124 39.728C53.124 38.9813 52.9 38.3933 52.452 37.964C52.0227 37.5347 51.3693 37.32 50.492 37.32H47.524V42.192ZM60.0496 45.16C60.0496 43.5547 60.3483 42.1453 60.9456 40.932C61.5616 39.7187 62.3923 38.7853 63.4376 38.132C64.483 37.4787 65.6496 37.152 66.9376 37.152C68.039 37.152 69.0003 37.376 69.8216 37.824C70.6616 38.272 71.3056 38.86 71.7536 39.588V37.376H76.5416V53H71.7536V50.788C71.287 51.516 70.6336 52.104 69.7936 52.552C68.9723 53 68.011 53.224 66.9096 53.224C65.6403 53.224 64.483 52.8973 63.4376 52.244C62.3923 51.572 61.5616 50.6293 60.9456 49.416C60.3483 48.184 60.0496 46.7653 60.0496 45.16ZM71.7536 45.188C71.7536 43.9933 71.4176 43.0507 70.7456 42.36C70.0923 41.6693 69.2896 41.324 68.3376 41.324C67.3856 41.324 66.5736 41.6693 65.9016 42.36C65.2483 43.032 64.9216 43.9653 64.9216 45.16C64.9216 46.3547 65.2483 47.3067 65.9016 48.016C66.5736 48.7067 67.3856 49.052 68.3376 49.052C69.2896 49.052 70.0923 48.7067 70.7456 48.016C71.4176 47.3253 71.7536 46.3827 71.7536 45.188ZM79.0535 45.16C79.0535 43.5547 79.3522 42.1453 79.9495 40.932C80.5655 39.7187 81.3962 38.7853 82.4415 38.132C83.4869 37.4787 84.6535 37.152 85.9415 37.152C86.9682 37.152 87.9015 37.3667 88.7415 37.796C89.6002 38.2253 90.2722 38.804 90.7575 39.532V32.28H95.5455V53H90.7575V50.76C90.3095 51.5067 89.6655 52.104 88.8255 52.552C88.0042 53 87.0429 53.224 85.9415 53.224C84.6535 53.224 83.4869 52.8973 82.4415 52.244C81.3962 51.572 80.5655 50.6293 79.9495 49.416C79.3522 48.184 79.0535 46.7653 79.0535 45.16ZM90.7575 45.188C90.7575 43.9933 90.4215 43.0507 89.7495 42.36C89.0962 41.6693 88.2935 41.324 87.3415 41.324C86.3895 41.324 85.5775 41.6693 84.9055 42.36C84.2522 43.032 83.9255 43.9653 83.9255 45.16C83.9255 46.3547 84.2522 47.3067 84.9055 48.016C85.5775 48.7067 86.3895 49.052 87.3415 49.052C88.2935 49.052 89.0962 48.7067 89.7495 48.016C90.4215 47.3253 90.7575 46.3827 90.7575 45.188ZM101.417 35.752C100.577 35.752 99.8868 35.5093 99.3454 35.024C98.8228 34.52 98.5614 33.904 98.5614 33.176C98.5614 32.4293 98.8228 31.8133 99.3454 31.328C99.8868 30.824 100.577 30.572 101.417 30.572C102.239 30.572 102.911 30.824 103.433 31.328C103.975 31.8133 104.245 32.4293 104.245 33.176C104.245 33.904 103.975 34.52 103.433 35.024C102.911 35.5093 102.239 35.752 101.417 35.752ZM103.797 37.376V53H99.0094V37.376H103.797ZM106.315 45.16C106.315 43.5547 106.614 42.1453 107.211 40.932C107.827 39.7187 108.658 38.7853 109.703 38.132C110.749 37.4787 111.915 37.152 113.203 37.152C114.305 37.152 115.266 37.376 116.087 37.824C116.927 38.272 117.571 38.86 118.019 39.588V37.376H122.807V53H118.019V50.788C117.553 51.516 116.899 52.104 116.059 52.552C115.238 53 114.277 53.224 113.175 53.224C111.906 53.224 110.749 52.8973 109.703 52.244C108.658 51.572 107.827 50.6293 107.211 49.416C106.614 48.184 106.315 46.7653 106.315 45.16ZM118.019 45.188C118.019 43.9933 117.683 43.0507 117.011 42.36C116.358 41.6693 115.555 41.324 114.603 41.324C113.651 41.324 112.839 41.6693 112.167 42.36C111.514 43.032 111.187 43.9653 111.187 45.16C111.187 46.3547 111.514 47.3067 112.167 48.016C112.839 48.7067 113.651 49.052 114.603 49.052C115.555 49.052 116.358 48.7067 117.011 48.016C117.683 47.3253 118.019 46.3827 118.019 45.188ZM131.059 32.28V53H126.271V32.28H131.059Z" fill="white"/>
</g>
<path fill-rule="evenodd" clip-rule="evenodd" d="M27.5772 52.1924C32.654 47.1156 32.654 38.8844 27.5772 33.8076C22.5003 28.7308 14.2692 28.7308 9.19239 33.8076C4.11557 38.8844 4.11557 47.1156 9.19239 52.1924C14.2692 57.2692 22.5003 57.2692 27.5772 52.1924ZM24.5638 51.0641C28.0157 47.6122 28.0157 42.0157 24.5638 38.5638C21.112 35.112 15.5154 35.112 12.0636 38.5638C8.61175 42.0157 8.61175 47.6122 12.0636 51.0641C15.5154 54.5159 21.112 54.5159 24.5638 51.0641Z" fill="white"/>
<defs>
<filter id="filter0_d_2_68" x="8.73596" y="0.571777" width="156.323" height="90.6523" filterUnits="userSpaceOnUse" color-interpolation-filters="sRGB">
<feFlood flood-opacity="0" result="BackgroundImageFix"/>
<feColorMatrix in="SourceAlpha" type="matrix" values="0 0 0 0 0 0 0 0 0 0 0 0 0 0 0 0 0 0 127 0" result="hardAlpha"/>
<feOffset dy="4"/>
<feGaussianBlur stdDeviation="17"/>
<feComposite in2="hardAlpha" operator="out"/>
<feColorMatrix type="matrix" values="0 0 0 0 0 0 0 0 0 0 0 0 0 0 0 0 0 0 0.25 0"/>
<feBlend mode="normal" in2="BackgroundImageFix" result="effect1_dropShadow_2_68"/>
<feBlend mode="normal" in="SourceGraphic" in2="effect1_dropShadow_2_68" result="shape"/>
</filter>
</defs>
</svg>

