<svg width="123" height="68" viewBox="0 0 123 68" fill="none" xmlns="http://www.w3.org/2000/svg">
<g filter="url(#filter0_d_2_73)">
<path d="M39.2722 39.3682L36.2293 33.845H35.3747V39.3682H31.8107V24.7369H37.7924C38.9457 24.7369 39.9253 24.9384 40.7312 25.3413C41.551 25.7443 42.1624 26.3001 42.5653 27.0087C42.9683 27.7034 43.1698 28.4816 43.1698 29.343C43.1698 30.3157 42.8919 31.1841 42.3361 31.9483C41.7942 32.7125 40.9883 33.2544 39.9184 33.574L43.2948 39.3682H39.2722ZM35.3747 31.323H37.584C38.2371 31.323 38.7234 31.1633 39.043 30.8437C39.3765 30.5241 39.5432 30.0725 39.5432 29.4889C39.5432 28.9331 39.3765 28.4954 39.043 28.1759C38.7234 27.8563 38.2371 27.6965 37.584 27.6965H35.3747V31.323ZM44.6984 33.5323C44.6984 32.3374 44.9207 31.2883 45.3654 30.3851C45.8239 29.482 46.4422 28.7872 47.2203 28.3009C47.9984 27.8146 48.8669 27.5714 49.8256 27.5714C50.6454 27.5714 51.361 27.7382 51.9724 28.0717C52.5976 28.4051 53.077 28.8428 53.4105 29.3847V27.7382H56.9745V39.3682H53.4105V37.7216C53.0631 38.2635 52.5768 38.7012 51.9515 39.0347C51.3401 39.3682 50.6246 39.5349 49.8048 39.5349C48.8599 39.5349 47.9984 39.2917 47.2203 38.8054C46.4422 38.3052 45.8239 37.6035 45.3654 36.7004C44.9207 35.7833 44.6984 34.7273 44.6984 33.5323ZM53.4105 33.5532C53.4105 32.6639 53.1604 31.9622 52.6601 31.4481C52.1738 30.934 51.5763 30.6769 50.8677 30.6769C50.1591 30.6769 49.5546 30.934 49.0544 31.4481C48.5681 31.9483 48.325 32.6431 48.325 33.5323C48.325 34.4216 48.5681 35.1302 49.0544 35.6582C49.5546 36.1723 50.1591 36.4294 50.8677 36.4294C51.5763 36.4294 52.1738 36.1723 52.6601 35.6582C53.1604 35.1441 53.4105 34.4424 53.4105 33.5532ZM58.8443 33.5323C58.8443 32.3374 59.0666 31.2883 59.5112 30.3851C59.9698 29.482 60.5881 28.7872 61.3662 28.3009C62.1443 27.8146 63.0127 27.5714 63.9715 27.5714C64.7357 27.5714 65.4304 27.7312 66.0557 28.0508C66.6949 28.3704 67.1951 28.8011 67.5563 29.343V23.9449H71.1204V39.3682H67.5563V37.7008C67.2229 38.2566 66.7435 38.7012 66.1182 39.0347C65.5069 39.3682 64.7913 39.5349 63.9715 39.5349C63.0127 39.5349 62.1443 39.2917 61.3662 38.8054C60.5881 38.3052 59.9698 37.6035 59.5112 36.7004C59.0666 35.7833 58.8443 34.7273 58.8443 33.5323ZM67.5563 33.5532C67.5563 32.6639 67.3062 31.9622 66.806 31.4481C66.3197 30.934 65.7222 30.6769 65.0136 30.6769C64.305 30.6769 63.7005 30.934 63.2003 31.4481C62.714 31.9483 62.4708 32.6431 62.4708 33.5323C62.4708 34.4216 62.714 35.1302 63.2003 35.6582C63.7005 36.1723 64.305 36.4294 65.0136 36.4294C65.7222 36.4294 66.3197 36.1723 66.806 35.6582C67.3062 35.1441 67.5563 34.4424 67.5563 33.5532ZM75.4912 26.5293C74.866 26.5293 74.3518 26.3487 73.9489 25.9874C73.5598 25.6123 73.3653 25.1537 73.3653 24.6118C73.3653 24.056 73.5598 23.5975 73.9489 23.2362C74.3518 22.8611 74.866 22.6735 75.4912 22.6735C76.1026 22.6735 76.6028 22.8611 76.9919 23.2362C77.3948 23.5975 77.5963 24.056 77.5963 24.6118C77.5963 25.1537 77.3948 25.6123 76.9919 25.9874C76.6028 26.3487 76.1026 26.5293 75.4912 26.5293ZM77.2628 27.7382V39.3682H73.6988V27.7382H77.2628ZM79.137 33.5323C79.137 32.3374 79.3593 31.2883 79.8039 30.3851C80.2625 29.482 80.8808 28.7872 81.6589 28.3009C82.437 27.8146 83.3054 27.5714 84.2642 27.5714C85.084 27.5714 85.7996 27.7382 86.4109 28.0717C87.0362 28.4051 87.5156 28.8428 87.8491 29.3847V27.7382H91.4131V39.3682H87.8491V37.7216C87.5017 38.2635 87.0154 38.7012 86.3901 39.0347C85.7787 39.3682 85.0631 39.5349 84.2433 39.5349C83.2985 39.5349 82.437 39.2917 81.6589 38.8054C80.8808 38.3052 80.2625 37.6035 79.8039 36.7004C79.3593 35.7833 79.137 34.7273 79.137 33.5323ZM87.8491 33.5532C87.8491 32.6639 87.599 31.9622 87.0987 31.4481C86.6124 30.934 86.0149 30.6769 85.3063 30.6769C84.5977 30.6769 83.9932 30.934 83.493 31.4481C83.0067 31.9483 82.7635 32.6431 82.7635 33.5323C82.7635 34.4216 83.0067 35.1302 83.493 35.6582C83.9932 36.1723 84.5977 36.4294 85.3063 36.4294C86.0149 36.4294 86.6124 36.1723 87.0987 35.6582C87.599 35.1441 87.8491 34.4424 87.8491 33.5532ZM97.5555 23.9449V39.3682H93.9915V23.9449H97.5555Z" fill="#666666"/>
</g>
<path fill-rule="evenodd" clip-rule="evenodd" d="M20.5265 38.8425C24.3056 35.0635 24.3056 28.9365 20.5265 25.1575C16.7475 21.3785 10.6205 21.3785 6.84153 25.1575C3.06252 28.9365 3.06252 35.0635 6.84153 38.8425C10.6205 42.6215 16.7475 42.6215 20.5265 38.8425ZM18.2833 38.0025C20.8528 35.433 20.8528 31.2672 18.2833 28.6977C15.7139 26.1283 11.548 26.1283 8.97855 28.6977C6.40911 31.2672 6.40911 35.433 8.97855 38.0025C11.548 40.5719 15.7139 40.5719 18.2833 38.0025Z" fill="#666666"/>
<defs>
<filter id="filter0_d_2_73" x="6.50226" y="0.342583" width="116.362" height="67.4783" filterUnits="userSpaceOnUse" color-interpolation-filters="sRGB">
<feFlood flood-opacity="0" result="BackgroundImageFix"/>
<feColorMatrix in="SourceAlpha" type="matrix" values="0 0 0 0 0 0 0 0 0 0 0 0 0 0 0 0 0 0 127 0" result="hardAlpha"/>
<feOffset dy="2.97747"/>
<feGaussianBlur stdDeviation="12.6542"/>
<feComposite in2="hardAlpha" operator="out"/>
<feColorMatrix type="matrix" values="0 0 0 0 0 0 0 0 0 0 0 0 0 0 0 0 0 0 0.25 0"/>
<feBlend mode="normal" in2="BackgroundImageFix" result="effect1_dropShadow_2_73"/>
<feBlend mode="normal" in="SourceGraphic" in2="effect1_dropShadow_2_73" result="shape"/>
</filter>
</defs>
</svg>
