<svg width="18" height="15" viewBox="0 0 18 15" fill="none" xmlns="http://www.w3.org/2000/svg">
<path d="M5.68325 14.3407C12.4309 14.3407 16.1206 8.84644 16.1206 4.08224C16.1206 3.92619 16.1174 3.77084 16.1103 3.61619C16.8265 3.10726 17.4491 2.47215 17.9401 1.74917C17.2828 2.03632 16.5755 2.22964 15.8335 2.3168C16.5909 1.87043 17.1723 1.16432 17.4466 0.322546C16.7379 0.735525 15.9529 1.03568 15.1172 1.19771C14.4478 0.496878 13.4948 0.0585938 12.4395 0.0585938C10.4136 0.0585938 8.77081 1.67326 8.77081 3.66364C8.77081 3.94657 8.80299 4.22178 8.86593 4.48573C5.81701 4.33495 3.11352 2.90024 1.30441 0.718658C0.989356 1.25149 0.807695 1.87043 0.807695 2.53085C0.807695 3.78173 1.45531 4.88606 2.44015 5.53206C1.83831 5.51379 1.27294 5.35141 0.778728 5.08113C0.778188 5.09625 0.77819 5.111 0.77819 5.12717C0.77819 6.87328 2.04267 8.33118 3.72127 8.66157C3.41301 8.74416 3.08867 8.78845 2.75395 8.78845C2.51793 8.78845 2.28799 8.76562 2.06449 8.72343C2.53152 10.156 3.88576 11.1985 5.49141 11.2277C4.23586 12.1949 2.65418 12.771 0.935177 12.771C0.639438 12.771 0.347275 12.7544 0.0601196 12.7211C1.68364 13.7439 3.61148 14.3407 5.68344 14.3407" fill="white"/>
</svg>
